<svg xmlns="http://www.w3.org/2000/svg" xmlns:xlink="http://www.w3.org/1999/xlink" width="500" zoomAndPan="magnify" viewBox="0 0 375 374.999991" height="500" preserveAspectRatio="xMidYMid meet" version="1.0"><defs><g/><clipPath id="491539c82b"><path d="M 0 0 L 375 0 L 375 375 L 0 375 Z M 0 0 " clip-rule="nonzero"/></clipPath><clipPath id="0e6821530a"><path d="M 17.25 0 L 357.75 0 C 362.324219 0 366.710938 1.816406 369.949219 5.050781 C 373.183594 8.289062 375 12.675781 375 17.25 L 375 357.75 C 375 362.324219 373.183594 366.710938 369.949219 369.949219 C 366.710938 373.183594 362.324219 375 357.75 375 L 17.25 375 C 12.675781 375 8.289062 373.183594 5.050781 369.949219 C 1.816406 366.710938 0 362.324219 0 357.75 L 0 17.25 C 0 12.675781 1.816406 8.289062 5.050781 5.050781 C 8.289062 1.816406 12.675781 0 17.25 0 Z M 17.25 0 " clip-rule="nonzero"/></clipPath><clipPath id="8b3b063cd7"><path d="M 0 0 L 375 0 L 375 375 L 0 375 Z M 0 0 " clip-rule="nonzero"/></clipPath><clipPath id="cdf6199c6f"><path d="M 17.25 0 L 357.75 0 C 362.324219 0 366.710938 1.816406 369.949219 5.050781 C 373.183594 8.289062 375 12.675781 375 17.25 L 375 357.75 C 375 362.324219 373.183594 366.710938 369.949219 369.949219 C 366.710938 373.183594 362.324219 375 357.75 375 L 17.25 375 C 12.675781 375 8.289062 373.183594 5.050781 369.949219 C 1.816406 366.710938 0 362.324219 0 357.75 L 0 17.25 C 0 12.675781 1.816406 8.289062 5.050781 5.050781 C 8.289062 1.816406 12.675781 0 17.25 0 Z M 17.25 0 " clip-rule="nonzero"/></clipPath><clipPath id="890fbc1b1d"><rect x="0" width="375" y="0" height="375"/></clipPath><clipPath id="444f70d8d2"><rect x="0" width="375" y="0" height="375"/></clipPath></defs><g transform="matrix(1, 0, 0, 1, 0, 0)"><g clip-path="url(#444f70d8d2)"><g clip-path="url(#491539c82b)"><g clip-path="url(#0e6821530a)"><g transform="matrix(1, 0, 0, 1, 0, 0)"><g clip-path="url(#890fbc1b1d)"><g clip-path="url(#8b3b063cd7)"><g clip-path="url(#cdf6199c6f)"><rect x="-136.5" width="648" fill="#f6e9cf" y="-136.499997" height="647.999984" fill-opacity="1"/></g></g></g></g></g></g><g fill="#061d4e" fill-opacity="1"><g transform="translate(76.754894, 301.822956)"><g><path d="M 28.15625 -166.09375 C 22.3125 -179.851562 19.390625 -189.757812 19.390625 -195.8125 L 2.5 -194.875 L 2.5 -218.953125 L 94.78125 -218.953125 L 94.78125 -198.3125 C 81.019531 -198.726562 74.140625 -194.347656 74.140625 -185.171875 C 74.140625 -181.835938 74.972656 -178.191406 76.640625 -174.234375 L 105.40625 -103.53125 C 107.914062 -97.695312 111.046875 -89.984375 114.796875 -80.390625 C 116.046875 -77.054688 118.859375 -69.863281 123.234375 -58.8125 L 123.5625 -58.8125 L 138.5625 -101.96875 L 162.34375 -167.34375 C 166.925781 -181.726562 171.203125 -191.21875 175.171875 -195.8125 L 175.171875 -196.125 L 158.90625 -195.1875 L 151.078125 -194.875 L 151.078125 -218.953125 L 221.453125 -218.953125 L 221.453125 -198.3125 C 214.160156 -197.894531 207.90625 -195.128906 202.6875 -190.015625 C 197.476562 -184.910156 192.679688 -176.519531 188.296875 -164.84375 L 125.75 1.875 L 100.09375 1.875 Z M 28.15625 -166.09375 "/></g></g></g></g></g></svg>