<svg width="280" height="129" viewBox="0 0 280 129" fill="none" xmlns="http://www.w3.org/2000/svg">
<path d="M111.922 98L92 45.7051H107.186L118.611 78.3223L129.988 45.7051H145.223L125.301 98H111.922ZM161.312 117.922V104.494L168.734 104.592C170.036 104.592 171.29 104.38 172.494 103.957C173.699 103.534 174.805 102.948 175.814 102.199C176.856 101.451 177.768 100.555 178.549 99.5137C179.33 98.5046 179.965 97.3978 180.453 96.1934C178.988 96.8118 177.491 97.4303 175.961 98.0488C174.464 98.6673 172.95 98.9766 171.42 98.9766C168.197 98.9766 165.17 98.4069 162.338 97.2676C159.506 96.1283 157.016 94.5169 154.867 92.4336C152.751 90.3177 151.075 87.7624 149.838 84.7676C148.633 81.7402 148.031 78.3548 148.031 74.6113V45.7051H161.312V74.6113C161.312 76.4668 161.573 78.0944 162.094 79.4941C162.647 80.8613 163.38 82.0169 164.291 82.9609C165.202 83.8724 166.26 84.556 167.465 85.0117C168.702 85.4674 170.02 85.6953 171.42 85.6953C172.787 85.6953 174.073 85.3861 175.277 84.7676C176.514 84.1165 177.589 83.2702 178.5 82.2285C179.411 81.1868 180.128 80.015 180.648 78.7129C181.169 77.3783 181.43 76.0111 181.43 74.6113V45.7051H194.857V91.4082C194.825 95.0866 194.109 98.5371 192.709 101.76C191.309 104.982 189.389 107.798 186.947 110.207C184.538 112.616 181.723 114.52 178.5 115.92C175.277 117.32 171.827 118.02 168.148 118.02L161.312 117.922ZM217.49 98H204.062V24.9043H217.49V98ZM277.232 71.3887C277.232 75.2949 276.533 78.9408 275.133 82.3262C273.733 85.679 271.829 88.5924 269.42 91.0664C267.011 93.5078 264.179 95.4447 260.924 96.877C257.701 98.2767 254.234 98.9766 250.523 98.9766C246.845 98.9766 243.378 98.2767 240.123 96.877C236.9 95.4447 234.068 93.5078 231.627 91.0664C229.218 88.5924 227.314 85.679 225.914 82.3262C224.514 78.9408 223.814 75.2949 223.814 71.3887C223.814 67.4173 224.514 63.7389 225.914 60.3535C227.314 56.9681 229.218 54.0547 231.627 51.6133C234.068 49.1393 236.9 47.2025 240.123 45.8027C243.378 44.403 246.845 43.7031 250.523 43.7031C254.234 43.7031 257.701 44.3704 260.924 45.7051C264.179 47.0072 267.011 48.8789 269.42 51.3203C271.829 53.7292 273.733 56.6426 275.133 60.0605C276.533 63.446 277.232 67.222 277.232 71.3887ZM263.805 71.3887C263.805 69.2402 263.447 67.3034 262.73 65.5781C262.047 63.8203 261.103 62.3229 259.898 61.0859C258.694 59.8164 257.278 58.8561 255.65 58.2051C254.055 57.5215 252.346 57.1797 250.523 57.1797C248.701 57.1797 246.975 57.5215 245.348 58.2051C243.753 58.8561 242.353 59.8164 241.148 61.0859C239.977 62.3229 239.049 63.8203 238.365 65.5781C237.682 67.3034 237.34 69.2402 237.34 71.3887C237.34 73.4069 237.682 75.2786 238.365 77.0039C239.049 78.7292 239.977 80.2266 241.148 81.4961C242.353 82.7656 243.753 83.7747 245.348 84.5234C246.975 85.2396 248.701 85.5977 250.523 85.5977C252.346 85.5977 254.055 85.2559 255.65 84.5723C257.278 83.8887 258.694 82.9284 259.898 81.6914C261.103 80.4544 262.047 78.957 262.73 77.1992C263.447 75.4414 263.805 73.5046 263.805 71.3887Z" fill="white"/>
<g filter="url(#filter0_d_51_59)">
<rect x="4" y="36" width="70" height="70" rx="14" fill="url(#paint0_radial_51_59)"/>
</g>
<path d="M26.3232 47.5811L41.0645 79.5049L53.4668 56.0986L54.2656 54.5918L55.1904 56.0244L62.1787 66.8379H73V71.4121H58.5273L58.2314 70.9551L54.793 65.6328L41.627 90.4688L40.6816 92.252L39.835 90.4189L25.4053 59.1562L19.9863 70.833L19.7178 71.4121H5V66.8379H15.5762L24.5088 47.5791L25.418 45.6191L26.3232 47.5811Z" fill="white" stroke="white" stroke-width="2"/>
<defs>
<filter id="filter0_d_51_59" x="0" y="36" width="78" height="78" filterUnits="userSpaceOnUse" color-interpolation-filters="sRGB">
<feFlood flood-opacity="0" result="BackgroundImageFix"/>
<feColorMatrix in="SourceAlpha" type="matrix" values="0 0 0 0 0 0 0 0 0 0 0 0 0 0 0 0 0 0 127 0" result="hardAlpha"/>
<feOffset dy="4"/>
<feGaussianBlur stdDeviation="2"/>
<feComposite in2="hardAlpha" operator="out"/>
<feColorMatrix type="matrix" values="0 0 0 0 0 0 0 0 0 0 0 0 0 0 0 0 0 0 0.25 0"/>
<feBlend mode="normal" in2="BackgroundImageFix" result="effect1_dropShadow_51_59"/>
<feBlend mode="normal" in="SourceGraphic" in2="effect1_dropShadow_51_59" result="shape"/>
</filter>
<radialGradient id="paint0_radial_51_59" cx="0" cy="0" r="1" gradientUnits="userSpaceOnUse" gradientTransform="translate(39 71) rotate(90) scale(35)">
<stop stop-color="#AA8FF3"/>
<stop offset="0.5" stop-color="#8B5BEF"/>
<stop offset="1" stop-color="#654CE2"/>
</radialGradient>
</defs>
</svg>
